<svg width="109" height="109" viewBox="0 0 109 109" fill="none" xmlns="http://www.w3.org/2000/svg">
<g filter="url(#filter0_d_415_72)">
<path d="M93.4621 38.0714L58.532 3.39875C56.5218 1.40159 53.2595 1.40159 51.247 3.39875L43.9943 10.5996L53.1945 19.7331C55.3332 19.0163 57.7847 19.4972 59.4887 21.1891C61.2024 22.8915 61.6832 25.346 60.9427 27.4764L69.8104 36.279C71.9556 35.5452 74.4305 36.0195 76.1442 37.7232C78.5391 40.0999 78.5391 43.9517 76.1442 46.3292C73.7483 48.7073 69.8687 48.7073 67.4728 46.3292C65.6718 44.5397 65.2261 41.913 66.1381 39.7106L57.8687 31.5007L57.8681 53.1057C58.4517 53.3918 59.0028 53.7742 59.4889 54.2561C61.8841 56.6321 61.8841 60.4833 59.4889 62.8635C57.0941 65.2399 53.2128 65.2399 50.8204 62.8635C48.4259 60.4833 48.4259 56.6321 50.8204 54.2561C51.4122 53.6687 52.0966 53.2255 52.8274 52.9286V31.1229C52.0966 30.8265 51.4131 30.3855 50.8204 29.795C49.0067 27.9956 48.5697 25.353 49.5 23.1419L40.4304 14.1367L16.4801 37.911C14.4679 39.9099 14.4679 43.149 16.4801 45.1462L51.4096 79.819C53.4204 81.816 56.6827 81.816 58.6963 79.819L93.4621 45.307C95.4737 43.309 95.4737 40.0686 93.4621 38.0714Z" fill="#262F38"/>
</g>
<defs>
<filter id="filter0_d_415_72" x="0.970947" y="0.900879" width="108" height="107.416" filterUnits="userSpaceOnUse" color-interpolation-filters="sRGB">
<feFlood flood-opacity="0" result="BackgroundImageFix"/>
<feColorMatrix in="SourceAlpha" type="matrix" values="0 0 0 0 0 0 0 0 0 0 0 0 0 0 0 0 0 0 127 0" result="hardAlpha"/>
<feOffset dy="13"/>
<feGaussianBlur stdDeviation="7"/>
<feComposite in2="hardAlpha" operator="out"/>
<feColorMatrix type="matrix" values="0 0 0 0 0.7875 0 0 0 0 0.7875 0 0 0 0 0.7875 0 0 0 0.48 0"/>
<feBlend mode="normal" in2="BackgroundImageFix" result="effect1_dropShadow_415_72"/>
<feBlend mode="normal" in="SourceGraphic" in2="effect1_dropShadow_415_72" result="shape"/>
</filter>
</defs>
</svg>
