<svg width="111" height="109" viewBox="0 0 111 109" fill="none" xmlns="http://www.w3.org/2000/svg">
<g filter="url(#filter0_d_415_69)">
<path fill-rule="evenodd" clip-rule="evenodd" d="M55.2102 1.90088C32.6521 1.90088 14.3684 20.0992 14.3684 42.5519C14.3684 60.5051 26.0727 75.7409 42.2975 81.1313C44.334 81.51 45.0949 80.2403 45.0949 79.1711C45.0949 78.1911 45.0501 75.0058 45.0501 71.5978C33.6816 74.048 31.287 66.8088 31.287 66.8088C29.4295 62.1089 26.744 60.8615 26.744 60.8615C23.0291 58.3445 27.0126 58.389 27.0126 58.389C31.108 58.6786 33.2787 62.5766 33.2787 62.5766C36.9265 68.7912 42.8346 66.987 45.162 65.9624C45.5201 63.334 46.5943 61.552 47.758 60.5274C38.6945 59.5028 29.1386 56.0057 29.1386 40.4358C29.1386 36.0032 30.7275 32.3724 33.3459 29.5213C32.9207 28.4966 31.5332 24.3536 33.7487 18.7627C33.7487 18.7627 37.1727 17.6712 44.983 22.928C48.2503 22.037 51.7415 21.5693 55.2102 21.5693C58.679 21.5915 62.1701 22.037 65.4375 22.928C73.2254 17.6712 76.6494 18.7627 76.6494 18.7627C78.8649 24.3536 77.4774 28.4966 77.0522 29.5213C79.6706 32.3724 81.2595 36.0032 81.2595 40.4358C81.2595 56.0502 71.7036 59.4805 62.6177 60.4828C64.0724 61.7525 65.3927 64.225 65.3927 68.0116C65.3927 73.4466 65.348 77.8347 65.348 79.1711C65.348 80.2626 66.0865 81.51 68.1453 81.1313C84.3702 75.7409 96.0521 60.5274 96.0521 42.5519C96.0521 20.0992 77.7684 1.90088 55.2102 1.90088Z" fill="#262F38"/>
<path d="M29.8324 60.2601C29.7429 60.4605 29.4296 60.5274 29.1387 60.3937C28.8478 60.2601 28.6687 59.9928 28.7806 59.7923C28.8701 59.5918 29.1835 59.525 29.4744 59.6586C29.7653 59.7923 29.9443 60.0596 29.8324 60.2601Z" fill="#262F38"/>
<path d="M31.4884 62.1088C31.287 62.287 30.9066 62.1979 30.6604 61.9306C30.3919 61.641 30.3471 61.2624 30.5485 61.0842C30.7499 60.906 31.108 60.9951 31.3765 61.2624C31.6451 61.5519 31.6898 61.9306 31.4884 62.1088Z" fill="#262F38"/>
<path d="M33.0997 64.4476C32.8536 64.6258 32.4507 64.4699 32.1822 64.0912C31.936 63.7348 31.936 63.2893 32.1822 63.1111C32.4284 62.933 32.8312 63.0889 33.0997 63.4453C33.3683 63.8239 33.3683 64.2694 33.0997 64.4476Z" fill="#262F38"/>
<path d="M35.3153 66.6974C35.0916 66.9425 34.6216 66.8756 34.2635 66.5415C33.9055 66.2074 33.8159 65.7396 34.0397 65.4946C34.2635 65.2496 34.7559 65.3164 35.0916 65.6505C35.4496 66.0069 35.5391 66.4747 35.3153 66.6974Z" fill="#262F38"/>
<path d="M38.3588 68.0116C38.2693 68.3235 37.7993 68.4794 37.3294 68.3457C36.8594 68.2121 36.5685 67.8334 36.658 67.5216C36.7475 67.2097 37.2175 67.0538 37.6874 67.1875C38.135 67.3211 38.4483 67.6998 38.3588 68.0116Z" fill="#262F38"/>
<path d="M41.6932 68.2567C41.7156 68.5908 41.3128 68.8804 40.8205 68.8804C40.3281 68.9026 39.9477 68.6131 39.9253 68.279C39.9253 67.9448 40.3057 67.6553 40.7981 67.6553C41.2904 67.6553 41.6932 67.9226 41.6932 68.2567Z" fill="#262F38"/>
<path d="M44.8041 67.7442C44.8712 68.0784 44.5355 68.4125 44.0432 68.5016C43.5732 68.5907 43.1256 68.3902 43.0809 68.0561C43.0137 67.722 43.3718 67.3879 43.8418 67.2988C44.3117 67.2097 44.7369 67.4101 44.8041 67.7442Z" fill="#262F38"/>
</g>
<defs>
<filter id="filter0_d_415_69" x="0.368408" y="0.900879" width="109.684" height="107.3" filterUnits="userSpaceOnUse" color-interpolation-filters="sRGB">
<feFlood flood-opacity="0" result="BackgroundImageFix"/>
<feColorMatrix in="SourceAlpha" type="matrix" values="0 0 0 0 0 0 0 0 0 0 0 0 0 0 0 0 0 0 127 0" result="hardAlpha"/>
<feOffset dy="13"/>
<feGaussianBlur stdDeviation="7"/>
<feComposite in2="hardAlpha" operator="out"/>
<feColorMatrix type="matrix" values="0 0 0 0 0.7875 0 0 0 0 0.7875 0 0 0 0 0.7875 0 0 0 0.48 0"/>
<feBlend mode="normal" in2="BackgroundImageFix" result="effect1_dropShadow_415_69"/>
<feBlend mode="normal" in="SourceGraphic" in2="effect1_dropShadow_415_69" result="shape"/>
</filter>
</defs>
</svg>
