<svg width="40" height="41" viewBox="0 0 40 41" fill="none" xmlns="http://www.w3.org/2000/svg">
<g clip-path="url(#clip0_415_103)">
<path d="M39.9883 0.131348H0.0117188C0.00524666 0.131348 0 0.136594 0 0.143066V40.1196C0 40.1261 0.00524666 40.1313 0.0117188 40.1313H39.9883C39.9948 40.1313 40 40.1261 40 40.1196V0.143066C40 0.136594 39.9948 0.131348 39.9883 0.131348Z" fill="#262F38"/>
<path d="M9.29683 20.0532C10.625 22.397 13.125 23.8032 17.2656 24.1938C16.6406 24.6626 15.9375 25.522 15.8593 26.5376C15.0781 27.0063 13.5937 27.1626 12.4218 26.772C10.7812 26.2251 10.1562 23.022 7.6562 23.4907C7.10933 23.5688 7.18745 23.9595 7.6562 24.272C8.43745 24.7407 9.29683 25.522 9.68745 26.6157C10.625 29.0376 12.5781 29.6626 15.7031 29.1938V32.7095C15.7031 33.8032 14.1406 34.1157 14.1406 34.6626C14.1406 34.897 14.6875 34.897 15.0781 34.897C15.8593 34.897 17.5781 34.1938 17.5781 33.1001C17.5781 32.1626 17.5781 29.0376 17.6562 28.4907C17.6562 27.3188 18.2812 26.9282 18.2812 26.9282C18.2812 26.9282 18.3593 33.3345 18.125 34.1157C17.8125 35.1313 17.3437 34.9751 17.3437 35.4438C17.3437 36.147 19.375 35.6001 20.0781 34.1157C20.625 32.9438 20.3906 26.6938 20.3125 26.772H20.8593C20.8593 26.772 20.8593 29.6626 20.9375 30.9126C20.9375 32.2407 20.8593 33.9595 21.6406 34.8188C22.1875 35.3657 23.9062 36.3032 23.9062 35.4438C23.9062 34.9751 22.9687 34.5063 22.9687 33.1782V27.0063C23.75 27.0063 23.5937 29.0376 23.5937 29.0376L23.6718 32.7876C23.6718 32.7876 23.5156 34.1938 25.1562 34.7407C25.7812 34.9751 27.0312 34.9751 27.1093 34.6626C27.1875 34.3501 25.5468 33.8032 25.5468 32.7095V28.8813C25.5468 26.0688 25.1562 25.0532 23.8281 24.1938C27.9687 23.8032 30.5468 22.7876 31.7968 20.0532C32.5781 18.4907 32.7343 16.6157 32.7343 15.2095C32.7343 11.3032 30.8593 9.97509 30.4687 9.27196C31.0156 6.30321 30.3906 4.97509 30.0781 4.58446C28.9843 4.19384 26.3281 5.52196 24.9218 6.45946C22.5781 5.75634 17.5781 5.83446 15.7031 6.61571C12.2656 4.19384 10.4687 4.58446 10.4687 4.58446C10.4687 4.58446 9.29683 6.69384 10.1562 9.74071C8.98433 11.147 8.20308 12.1626 8.12495 14.8188C8.12495 16.9282 8.35933 18.2563 9.29683 20.0532Z" fill="white"/>
</g>
<defs>
<clipPath id="clip0_415_103">
<rect y="0.131348" width="40" height="40" rx="7" fill="white"/>
</clipPath>
</defs>
</svg>
