<svg width="98" height="109" viewBox="0 0 98 109" fill="none" xmlns="http://www.w3.org/2000/svg">
<g filter="url(#filter0_d_415_75)">
<path d="M14.0076 4.5492L19.1998 70.9735C19.2777 71.971 19.9529 72.8216 20.9067 73.1239L48.2279 81.7861C48.7111 81.9392 49.2298 81.9392 49.7129 81.7861L77.0342 73.1239C77.988 72.8216 78.6631 71.971 78.7411 70.9735L83.9332 4.5492C84.0449 3.12111 82.9163 1.90088 81.4839 1.90088H16.4571C15.0248 1.90088 13.8961 3.12111 14.0076 4.5492ZM70.6183 25.1584H36.78L37.8012 34.5755H69.8823L67.7837 61.4223L48.9705 67.3869L30.1573 61.4223L29.0609 47.3964H38.9356V54.2763L49.2344 57.0404L59.4717 54.2763L60.2659 43.3117H28.7416L26.6487 16.5354H71.2922L70.6183 25.1584Z" fill="#262F38"/>
</g>
<defs>
<filter id="filter0_d_415_75" x="0" y="0.900879" width="97.9409" height="108" filterUnits="userSpaceOnUse" color-interpolation-filters="sRGB">
<feFlood flood-opacity="0" result="BackgroundImageFix"/>
<feColorMatrix in="SourceAlpha" type="matrix" values="0 0 0 0 0 0 0 0 0 0 0 0 0 0 0 0 0 0 127 0" result="hardAlpha"/>
<feOffset dy="13"/>
<feGaussianBlur stdDeviation="7"/>
<feComposite in2="hardAlpha" operator="out"/>
<feColorMatrix type="matrix" values="0 0 0 0 0.7875 0 0 0 0 0.7875 0 0 0 0 0.7875 0 0 0 0.48 0"/>
<feBlend mode="normal" in2="BackgroundImageFix" result="effect1_dropShadow_415_75"/>
<feBlend mode="normal" in="SourceGraphic" in2="effect1_dropShadow_415_75" result="shape"/>
</filter>
</defs>
</svg>
