<svg width="40" height="41" viewBox="0 0 40 41" fill="none" xmlns="http://www.w3.org/2000/svg">
<g clip-path="url(#clip0_415_99)">
<path d="M20.0065 0.131348C11.6544 0.131348 9.21173 0.139964 8.73692 0.179352C7.02293 0.321825 5.95638 0.591694 4.79443 1.1702C3.89897 1.61486 3.19276 2.13029 2.49578 2.85281C1.22644 4.17046 0.457144 5.79152 0.178659 7.71845C0.0432631 8.65392 0.00387515 8.8447 -0.00412553 13.623C-0.00720271 15.2157 -0.00412553 17.3119 -0.00412553 20.1235C-0.00412553 28.4688 0.00510602 30.909 0.0451094 31.3829C0.183583 33.0507 0.445143 34.1001 0.999036 35.2479C2.05759 37.445 4.0793 39.0943 6.46104 39.7098C7.28572 39.9221 8.19657 40.039 9.3659 40.0944C9.86132 40.116 14.911 40.1313 19.9637 40.1313C25.0165 40.1313 30.0692 40.1252 30.5523 40.1006C31.9063 40.0369 32.6925 39.9313 33.5618 39.7067C35.9589 39.0882 37.9437 37.4634 39.0238 35.2355C39.5669 34.1155 39.8423 33.0261 39.9669 31.4454C39.994 31.1007 40.0054 25.6058 40.0054 20.1183C40.0054 14.6298 39.9931 9.14503 39.966 8.80039C39.8399 7.1941 39.5644 6.11401 39.0038 4.97237C38.5438 4.03783 38.0329 3.33993 37.2913 2.62633C35.9678 1.36222 34.3492 0.592925 32.4205 0.314748C31.4859 0.179659 31.2998 0.139656 26.5178 0.131348H20.0065Z" fill="url(#paint0_radial_415_99)"/>
<path d="M20.0065 0.131348C11.6544 0.131348 9.21173 0.139964 8.73692 0.179352C7.02293 0.321825 5.95638 0.591694 4.79443 1.1702C3.89897 1.61486 3.19276 2.13029 2.49578 2.85281C1.22644 4.17046 0.457144 5.79152 0.178659 7.71845C0.0432631 8.65392 0.00387515 8.8447 -0.00412553 13.623C-0.00720271 15.2157 -0.00412553 17.3119 -0.00412553 20.1235C-0.00412553 28.4688 0.00510602 30.909 0.0451094 31.3829C0.183583 33.0507 0.445143 34.1001 0.999036 35.2479C2.05759 37.445 4.0793 39.0943 6.46104 39.7098C7.28572 39.9221 8.19657 40.039 9.3659 40.0944C9.86132 40.116 14.911 40.1313 19.9637 40.1313C25.0165 40.1313 30.0692 40.1252 30.5523 40.1006C31.9063 40.0369 32.6925 39.9313 33.5618 39.7067C35.9589 39.0882 37.9437 37.4634 39.0238 35.2355C39.5669 34.1155 39.8423 33.0261 39.9669 31.4454C39.994 31.1007 40.0054 25.6058 40.0054 20.1183C40.0054 14.6298 39.9931 9.14503 39.966 8.80039C39.8399 7.1941 39.5644 6.11401 39.0038 4.97237C38.5438 4.03783 38.0329 3.33993 37.2913 2.62633C35.9678 1.36222 34.3492 0.592925 32.4205 0.314748C31.4859 0.179659 31.2998 0.139656 26.5178 0.131348H20.0065Z" fill="#262F38"/>
<path d="M19.9973 5.36255C15.9859 5.36255 15.4825 5.38009 13.9069 5.45179C12.3345 5.52379 11.2612 5.77274 10.322 6.138C9.35055 6.51526 8.52648 7.01992 7.70549 7.84122C6.88388 8.66221 6.37922 9.48628 6.00073 10.4574C5.63454 11.3969 5.38529 12.4705 5.31452 14.0424C5.24405 15.6179 5.22559 16.1216 5.22559 20.133C5.22559 24.1444 5.24343 24.6463 5.31482 26.2219C5.38714 27.7943 5.63608 28.8676 6.00104 29.8068C6.37861 30.7782 6.88326 31.6023 7.70456 32.4233C8.52525 33.2449 9.34932 33.7508 10.3202 34.1281C11.2599 34.4933 12.3336 34.7423 13.9057 34.8143C15.4812 34.886 15.9843 34.9035 19.9955 34.9035C24.0072 34.9035 24.5091 34.886 26.0846 34.8143C27.657 34.7423 28.7316 34.4933 29.6713 34.1281C30.6425 33.7508 31.4653 33.2449 32.286 32.4233C33.1076 31.6023 33.6123 30.7782 33.9908 29.8071C34.3539 28.8676 34.6031 27.794 34.677 26.2222C34.7478 24.6466 34.7662 24.1444 34.7662 20.133C34.7662 16.1216 34.7478 15.6182 34.677 14.0427C34.6031 12.4702 34.3539 11.3969 33.9908 10.4577C33.6123 9.48628 33.1076 8.66221 32.286 7.84122C31.4644 7.01961 30.6428 6.51495 29.6704 6.138C28.7288 5.77274 27.6549 5.52379 26.0824 5.45179C24.5069 5.38009 24.0053 5.36255 19.9927 5.36255H19.9973ZM18.6723 8.02431C19.0655 8.0237 19.5043 8.02431 19.9973 8.02431C23.941 8.02431 24.4084 8.03847 25.9658 8.10924C27.4059 8.17509 28.1875 8.41573 28.7082 8.6179C29.3975 8.88562 29.8889 9.20564 30.4056 9.72261C30.9225 10.2396 31.2426 10.7319 31.5109 11.4212C31.7131 11.9413 31.954 12.7229 32.0195 14.163C32.0903 15.72 32.1057 16.1878 32.1057 20.1296C32.1057 24.0715 32.0903 24.5392 32.0195 26.0963C31.9537 27.5364 31.7131 28.318 31.5109 28.8381C31.2432 29.5274 30.9225 30.0182 30.4056 30.5348C29.8886 31.0518 29.3978 31.3718 28.7082 31.6395C28.1881 31.8426 27.4059 32.0827 25.9658 32.1485C24.4087 32.2193 23.941 32.2347 19.9973 32.2347C16.0533 32.2347 15.5858 32.2193 14.0288 32.1485C12.5887 32.082 11.8071 31.8414 11.2861 31.6392C10.5968 31.3715 10.1045 31.0515 9.58749 30.5345C9.07053 30.0176 8.7505 29.5264 8.48217 28.8368C8.28 28.3168 8.03905 27.5352 7.97351 26.0951C7.90273 24.538 7.88858 24.0703 7.88858 20.126C7.88858 16.1816 7.90273 15.7163 7.97351 14.1593C8.03936 12.7192 8.28 11.9376 8.48217 11.4169C8.74988 10.7276 9.07053 10.2353 9.58749 9.7183C10.1045 9.20134 10.5968 8.88131 11.2861 8.61298C11.8068 8.40988 12.5887 8.16986 14.0288 8.1037C15.3914 8.04216 15.9194 8.0237 18.6723 8.02062V8.02431ZM27.8817 10.4768C26.9031 10.4768 26.1092 11.2698 26.1092 12.2487C26.1092 13.2272 26.9031 14.0211 27.8817 14.0211C28.8602 14.0211 29.6541 13.2272 29.6541 12.2487C29.6541 11.2701 28.8602 10.4762 27.8817 10.4762V10.4768ZM19.9973 12.5478C15.8083 12.5478 12.412 15.9441 12.412 20.133C12.412 24.322 15.8083 27.7167 19.9973 27.7167C24.1863 27.7167 27.5813 24.322 27.5813 20.133C27.5813 15.9441 24.186 12.5478 19.997 12.5478H19.9973ZM19.9973 15.2095C22.7163 15.2095 24.9208 17.4137 24.9208 20.133C24.9208 22.852 22.7163 25.0565 19.9973 25.0565C17.278 25.0565 15.0738 22.852 15.0738 20.133C15.0738 17.4137 17.278 15.2095 19.9973 15.2095Z" fill="white"/>
</g>
<defs>
<radialGradient id="paint0_radial_415_99" cx="0" cy="0" r="1" gradientUnits="userSpaceOnUse" gradientTransform="translate(10.6225 43.2122) rotate(-90) scale(39.643 36.8811)">
<stop stop-color="#FFDD55"/>
<stop offset="0.1" stop-color="#FFDD55"/>
<stop offset="0.5" stop-color="#FF543E"/>
<stop offset="1" stop-color="#C837AB"/>
</radialGradient>
<clipPath id="clip0_415_99">
<rect width="40" height="40" fill="white" transform="translate(0 0.131348)"/>
</clipPath>
</defs>
</svg>
