<svg width="108" height="109" viewBox="0 0 108 109" fill="none" xmlns="http://www.w3.org/2000/svg">
<g filter="url(#filter0_d_415_73)">
<path d="M89.872 1.90088H18.0688C15.8597 1.90088 14.0688 3.69173 14.0688 5.90087V77.704C14.0688 79.9132 15.8597 81.704 18.0688 81.704H89.872C92.0811 81.704 93.872 79.9132 93.872 77.704V5.90088C93.872 3.69174 92.0811 1.90088 89.872 1.90088Z" fill="#262F38"/>
<path d="M35.0581 68.5856L41.1581 64.8906C42.3388 66.9896 43.4101 68.7387 45.9682 68.7387C48.4388 68.7387 49.9911 67.7767 49.9911 64.0161V38.5447H57.4904V64.1473C57.4904 71.9089 52.9428 75.4509 46.2961 75.4509C40.3054 75.4509 36.8291 72.3462 35.0581 68.5856Z" fill="white"/>
<path d="M61.5791 67.7766L67.6791 64.2346C69.2971 66.8583 71.3741 68.7823 75.0691 68.7823C78.1738 68.7823 80.1634 67.23 80.1634 65.0873C80.1634 62.5074 78.1301 61.611 74.6974 60.1024L72.8171 59.2934C67.4168 56.9977 63.8092 54.0898 63.8092 47.9898C63.8092 42.3708 68.0945 38.0854 74.7849 38.0854C79.5512 38.0854 82.9838 39.7471 85.4545 44.0761L79.6168 47.8149C78.3268 45.5192 76.9494 44.6009 74.8067 44.6009C72.6204 44.6009 71.2211 46.0002 71.2211 47.8149C71.2211 50.0669 72.6204 50.9851 75.8343 52.3626L77.7146 53.1715C84.0989 55.9045 87.6846 58.6812 87.6846 64.9562C87.6846 71.7121 82.3716 75.4071 75.2659 75.4071C68.2694 75.4508 63.7655 72.1275 61.5791 67.7766Z" fill="white"/>
</g>
<defs>
<filter id="filter0_d_415_73" x="0.0688477" y="0.900879" width="107.803" height="107.803" filterUnits="userSpaceOnUse" color-interpolation-filters="sRGB">
<feFlood flood-opacity="0" result="BackgroundImageFix"/>
<feColorMatrix in="SourceAlpha" type="matrix" values="0 0 0 0 0 0 0 0 0 0 0 0 0 0 0 0 0 0 127 0" result="hardAlpha"/>
<feOffset dy="13"/>
<feGaussianBlur stdDeviation="7"/>
<feComposite in2="hardAlpha" operator="out"/>
<feColorMatrix type="matrix" values="0 0 0 0 0.7875 0 0 0 0 0.7875 0 0 0 0 0.7875 0 0 0 0.48 0"/>
<feBlend mode="normal" in2="BackgroundImageFix" result="effect1_dropShadow_415_73"/>
<feBlend mode="normal" in="SourceGraphic" in2="effect1_dropShadow_415_73" result="shape"/>
</filter>
</defs>
</svg>
