<svg width="21" height="24" viewBox="0 0 21 24" fill="none" xmlns="http://www.w3.org/2000/svg">
<path d="M10.5133 17.5386C9.52618 17.5386 8.65942 17.3408 7.91305 16.9453C7.17871 16.5497 6.61291 15.9684 6.21565 15.2012C5.81839 14.4221 5.6318 13.4692 5.65587 12.3425C5.66791 11.2038 5.89062 10.2389 6.324 9.44782C6.76941 8.65672 7.37735 8.05741 8.14779 7.64988C8.91824 7.24234 9.80908 7.03857 10.8203 7.03857C12.2047 7.03857 13.2761 7.33823 14.0345 7.93755C14.7929 8.53686 15.2985 9.40587 15.5513 10.5446L13.7817 10.7963C13.6011 10.0411 13.2279 9.51375 12.6621 9.21409C12.1084 8.91443 11.4944 8.7646 10.8203 8.7646C9.66462 8.7646 8.81592 9.07625 8.2742 9.69953C7.74451 10.3228 7.47365 11.1559 7.46161 12.1987C7.46161 13.3494 7.76859 14.2363 8.38254 14.8596C8.99649 15.4709 9.87529 15.7766 11.0189 15.7766C11.7171 15.7766 12.3492 15.6148 12.9149 15.2911C13.4807 14.9555 13.8479 14.4221 14.0165 13.691H11.7773V12.3425H15.75V17.3408H14.504L14.0887 15.5788H14.0526C13.9322 15.8785 13.7215 16.1781 13.4206 16.4778C13.1316 16.7774 12.7464 17.0292 12.2649 17.2329C11.7834 17.4367 11.1995 17.5386 10.5133 17.5386Z" fill="black"/>
<path d="M10.7089 24C8.70886 24 6.89873 23.5641 5.27848 22.6922C3.65823 21.7931 2.36709 20.4716 1.40506 18.7279C0.468354 16.9841 0 14.8044 0 12.1887C0.0253165 9.62758 0.506329 7.44787 1.44304 5.64961C2.37975 3.85135 3.65823 2.48903 5.27848 1.56266C6.89873 0.636283 8.74684 0.173096 10.8228 0.173096C12.7975 0.173096 14.481 0.554544 15.8734 1.31744C17.2658 2.08034 18.3797 3.1157 19.2152 4.42352C20.0759 5.73135 20.6329 7.20265 20.8861 8.83743H16.8987C16.7215 7.63859 16.3038 6.69859 15.6456 6.01744C15.0127 5.30903 14.2658 4.8186 13.4051 4.54613C12.5443 4.24642 11.6835 4.09657 10.8228 4.09657C8.56962 4.09657 6.83544 4.77773 5.62025 6.14004C4.43038 7.50236 3.83544 9.42323 3.83544 11.9026C3.83544 14.5455 4.41772 16.5754 5.58228 17.9922C6.77215 19.409 8.49367 20.1174 10.7468 20.1174C11.6835 20.1174 12.5949 19.9676 13.481 19.6679C14.3671 19.3409 15.1266 18.8232 15.7595 18.1148C16.3924 17.3792 16.7975 16.3983 16.9747 15.1722H21C20.7215 16.8615 20.1519 18.3737 19.2911 19.7087C18.4557 21.0165 17.3165 22.0655 15.8734 22.8557C14.4557 23.6186 12.7342 24 10.7089 24Z" fill="black"/>
</svg>
